<svg width="49" height="49" viewBox="0 0 49 49" fill="none" xmlns="http://www.w3.org/2000/svg">
<path d="M35.9918 15.0101V8.02232C35.9918 5.46013 38.2408 3.3638 40.9897 3.3638M25.9959 26.6564H35.9918M25.9959 6.85769C26.0052 5.40046 25.4279 3.99294 24.3781 2.91307C23.3283 1.8332 21.8823 1.15947 20.3255 1.02489C18.7688 0.890323 17.2145 1.3047 15.9695 2.1862C14.7246 3.06771 13.8795 4.35226 13.6011 5.78623C12.7773 5.93008 11.993 6.22697 11.2949 6.6592C10.5967 7.09143 9.99905 7.65017 9.53738 8.30216C9.07572 8.95415 8.75952 9.68606 8.6076 10.4543C8.45569 11.2226 8.47117 12.0115 8.65313 12.774C7.52525 12.9606 6.47414 13.4327 5.6147 14.1386C4.75527 14.8446 4.12061 15.7571 3.78011 16.7766C3.4396 17.7961 3.40637 18.8832 3.68404 19.919C3.96171 20.9549 4.53959 21.8997 5.3545 22.6501C3.9839 23.2399 2.83626 24.2016 2.06178 25.4094C1.2873 26.6173 0.922068 28.0149 1.01388 29.4194C1.1057 30.8239 1.65028 32.1698 2.57635 33.281C3.50243 34.3923 4.76686 35.217 6.20414 35.6474C5.92972 36.6137 5.92678 37.6295 6.19561 38.5972C6.46444 39.5649 6.99599 40.4517 7.73908 41.1725C8.48218 41.8932 9.4118 42.4235 10.4385 42.7123C11.4651 43.0011 12.5543 43.0387 13.6011 42.8215C13.8605 44.1535 14.6097 45.3597 15.72 46.2326C16.8302 47.1055 18.232 47.5905 19.6844 47.6043C21.1368 47.6181 22.5489 47.1597 23.678 46.3081C24.8071 45.4565 25.5825 44.2648 25.871 42.9379L25.9959 42.9612V6.85769Z" stroke="#00D4D6" stroke-width="2" stroke-linecap="round" stroke-linejoin="round"/>
<path d="M25.9958 38.3027H40.9896C42.3151 38.3027 43.5864 38.7935 44.5237 39.6672C45.461 40.5408 45.9875 41.7257 45.9875 42.9613V45.2905M25.9958 15.0101H45.9875M47.237 15.0101C47.237 15.319 47.1054 15.6152 46.8711 15.8336C46.6367 16.052 46.3189 16.1748 45.9875 16.1748C45.6562 16.1748 45.3383 16.052 45.104 15.8336C44.8697 15.6152 44.7381 15.319 44.7381 15.0101C44.7381 14.7012 44.8697 14.405 45.104 14.1866C45.3383 13.9682 45.6562 13.8455 45.9875 13.8455C46.3189 13.8455 46.6367 13.9682 46.8711 14.1866C47.1054 14.405 47.237 14.7012 47.237 15.0101ZM37.2412 26.6564C37.2412 26.9653 37.1095 27.2615 36.8752 27.4799C36.6409 27.6984 36.3231 27.8211 35.9917 27.8211C35.6603 27.8211 35.3425 27.6984 35.1082 27.4799C34.8739 27.2615 34.7422 26.9653 34.7422 26.6564C34.7422 26.3475 34.8739 26.0513 35.1082 25.8329C35.3425 25.6145 35.6603 25.4918 35.9917 25.4918C36.3231 25.4918 36.6409 25.6145 36.8752 25.8329C37.1095 26.0513 37.2412 26.3475 37.2412 26.6564Z" stroke="#00D4D6" stroke-width="2" stroke-linecap="round" stroke-linejoin="round"/>
<path d="M47.2371 45.2905C47.2371 45.5994 47.1054 45.8956 46.8711 46.114C46.6368 46.3324 46.319 46.4551 45.9876 46.4551C45.6562 46.4551 45.3384 46.3324 45.1041 46.114C44.8697 45.8956 44.7381 45.5994 44.7381 45.2905C44.7381 44.9816 44.8697 44.6854 45.1041 44.467C45.3384 44.2486 45.6562 44.1259 45.9876 44.1259C46.319 44.1259 46.6368 44.2486 46.8711 44.467C47.1054 44.6854 47.2371 44.9816 47.2371 45.2905ZM42.2391 3.3638C42.2391 3.67268 42.1075 3.96891 41.8732 4.18732C41.6388 4.40573 41.321 4.52843 40.9897 4.52843C40.6583 4.52843 40.3405 4.40573 40.1061 4.18732C39.8718 3.96891 39.7402 3.67268 39.7402 3.3638C39.7402 3.05492 39.8718 2.7587 40.1061 2.54029C40.3405 2.32187 40.6583 2.19917 40.9897 2.19917C41.321 2.19917 41.6388 2.32187 41.8732 2.54029C42.1075 2.7587 42.2391 3.05492 42.2391 3.3638Z" stroke="#00D4D6" stroke-width="2" stroke-linecap="round" stroke-linejoin="round"/>
</svg>
