<svg width="52" height="49" viewBox="0 0 52 49" fill="none" xmlns="http://www.w3.org/2000/svg">
<path d="M48.5 33.6232H38.5C37.1193 33.6232 36 34.6665 36 35.9534V45.2744C36 46.5613 37.1193 47.6046 38.5 47.6046H48.5C49.8807 47.6046 51 46.5613 51 45.2744V35.9534C51 34.6665 49.8807 33.6232 48.5 33.6232Z" stroke="#FF91D9" stroke-width="2" stroke-linecap="round" stroke-linejoin="round"/>
<path d="M13.5 33.6232H3.5C2.11929 33.6232 1 34.6665 1 35.9534V45.2744C1 46.5613 2.11929 47.6046 3.5 47.6046H13.5C14.8807 47.6046 16 46.5613 16 45.2744V35.9534C16 34.6665 14.8807 33.6232 13.5 33.6232Z" stroke="#FF91D9" stroke-width="2" stroke-linecap="round" stroke-linejoin="round"/>
<path d="M31 1H21C19.6193 1 18.5 2.04328 18.5 3.33023V12.6511C18.5 13.9381 19.6193 14.9814 21 14.9814H31C32.3807 14.9814 33.5 13.9381 33.5 12.6511V3.33023C33.5 2.04328 32.3807 1 31 1Z" stroke="#FF91D9" stroke-width="2" stroke-linecap="round" stroke-linejoin="round"/>
<path d="M8.5 33.6232V26.6325C8.5 26.0145 8.76339 25.4218 9.23223 24.9848C9.70107 24.5478 10.337 24.3023 11 24.3023H41C41.663 24.3023 42.2989 24.5478 42.7678 24.9848C43.2366 25.4218 43.5 26.0145 43.5 26.6325V33.6232M26 24.3023V14.9814" stroke="#FF91D9" stroke-width="2" stroke-linecap="round" stroke-linejoin="round"/>
</svg>
