<svg width="52" height="49" viewBox="0 0 52 49" fill="none" xmlns="http://www.w3.org/2000/svg">
<path d="M48.2973 1H3.7027C2.9859 1 2.29846 1.26541 1.7916 1.73785C1.28475 2.21028 1 2.85104 1 3.51917V45.0854C1 45.7535 1.28475 46.3943 1.7916 46.8667C2.29846 47.3392 2.9859 47.6046 3.7027 47.6046H48.2973C49.0141 47.6046 49.7015 47.3392 50.2084 46.8667C50.7153 46.3943 51 45.7535 51 45.0854V3.51917C51 2.85104 50.7153 2.21028 50.2084 1.73785C49.7015 1.26541 49.0141 1 48.2973 1Z" stroke="#F1662A" stroke-linecap="round" stroke-linejoin="round"/>
<path d="M15.0703 16.8557V26.1363C15.0703 27.8443 13.5838 29.2298 11.7514 29.2298C11.3155 29.2298 10.8839 29.1498 10.4813 28.9943C10.0786 28.8389 9.71271 28.611 9.40452 28.3237C9.09633 28.0365 8.85186 27.6954 8.68507 27.3201C8.51828 26.9448 8.43243 26.5425 8.43243 26.1363V25.1084" stroke="#F1662A" stroke-linecap="round" stroke-linejoin="round"/>
<path d="M24.9338 24.1259C24.9338 22.4174 23.4479 21.0324 21.6149 21.0324C19.7819 21.0324 18.296 22.4174 18.296 24.1259V26.1362C18.296 27.8448 19.7819 29.2298 21.6149 29.2298C23.4479 29.2298 24.9338 27.8448 24.9338 26.1362V24.1259Z" stroke="#F1662A" stroke-linecap="round" stroke-linejoin="round"/>
<path d="M37.9 28.5383C38.5054 29.0132 39.1595 29.2298 40.6298 29.2298H41.373C42.5852 29.2298 43.5676 28.3128 43.5676 27.1805C43.5676 26.0481 42.5852 25.1311 41.373 25.1311H39.8838C39.5954 25.1308 39.31 25.0775 39.0437 24.9743C38.7774 24.8712 38.5355 24.7201 38.3318 24.5298C38.1282 24.3395 37.9667 24.1137 37.8567 23.8653C37.7467 23.6168 37.6902 23.3506 37.6906 23.0818C37.6906 21.9494 38.673 21.0324 39.8838 21.0324H40.6284C42.0987 21.0324 42.7527 21.2491 43.3581 21.7239M28.0825 24.126C28.0825 22.4167 29.5689 21.0324 31.4014 21.0324C33.2338 21.0324 34.7203 22.418 34.7203 24.126V26.1363C34.7203 27.8443 33.2338 29.2298 31.4014 29.2298C30.5211 29.2298 29.677 28.9039 29.0545 28.3237C28.4321 27.7436 28.0825 26.9567 28.0825 26.1363M28.0825 29.2298V16.8557" stroke="#F1662A" stroke-linecap="round" stroke-linejoin="round"/>
</svg>
