<svg width="27" height="27" viewBox="0 0 27 27" fill="none" xmlns="http://www.w3.org/2000/svg">
<path d="M13.5 2.25C19.7134 2.25 24.75 7.28663 24.75 13.5C24.75 19.7134 19.7134 24.75 13.5 24.75C7.28663 24.75 2.25 19.7134 2.25 13.5C2.25 7.28663 7.28663 2.25 13.5 2.25ZM13.5 4.5C11.1131 4.5 8.82387 5.44821 7.13604 7.13604C5.44821 8.82387 4.5 11.1131 4.5 13.5C4.5 15.8869 5.44821 18.1761 7.13604 19.864C8.82387 21.5518 11.1131 22.5 13.5 22.5C15.8869 22.5 18.1761 21.5518 19.864 19.864C21.5518 18.1761 22.5 15.8869 22.5 13.5C22.5 11.1131 21.5518 8.82387 19.864 7.13604C18.1761 5.44821 15.8869 4.5 13.5 4.5ZM13.5 18C13.7984 18 14.0845 18.1185 14.2955 18.3295C14.5065 18.5405 14.625 18.8266 14.625 19.125C14.625 19.4234 14.5065 19.7095 14.2955 19.9205C14.0845 20.1315 13.7984 20.25 13.5 20.25C13.2016 20.25 12.9155 20.1315 12.7045 19.9205C12.4935 19.7095 12.375 19.4234 12.375 19.125C12.375 18.8266 12.4935 18.5405 12.7045 18.3295C12.9155 18.1185 13.2016 18 13.5 18ZM13.5 7.3125C14.4476 7.31253 15.3655 7.64252 16.0963 8.2458C16.827 8.84908 17.3248 9.68798 17.5042 10.6184C17.6837 11.5488 17.5335 12.5127 17.0795 13.3444C16.6255 14.1762 15.8961 14.8239 15.0165 15.1762C14.8869 15.2254 14.7697 15.3027 14.6734 15.4024C14.6239 15.4586 14.616 15.5306 14.6171 15.6049L14.625 15.75C14.6247 16.0367 14.5149 16.3125 14.318 16.521C14.1212 16.7295 13.8522 16.855 13.5659 16.8718C13.2797 16.8886 12.9978 16.7955 12.7779 16.6115C12.5581 16.4274 12.4167 16.1664 12.3829 15.8816L12.375 15.75V15.4688C12.375 14.1716 13.4213 13.3931 14.1795 13.0883C14.4881 12.965 14.7573 12.7601 14.9582 12.4954C15.1591 12.2307 15.2841 11.9163 15.3198 11.5859C15.3555 11.2555 15.3005 10.9216 15.1608 10.6202C15.021 10.3187 14.8018 10.0609 14.5266 9.87466C14.2514 9.68837 13.9307 9.58056 13.5989 9.5628C13.2671 9.54504 12.9367 9.618 12.6432 9.77385C12.3497 9.92971 12.1042 10.1626 11.9331 10.4474C11.762 10.7322 11.6717 11.0583 11.6719 11.3906C11.6719 11.689 11.5533 11.9751 11.3424 12.1861C11.1314 12.3971 10.8452 12.5156 10.5469 12.5156C10.2485 12.5156 9.96236 12.3971 9.75138 12.1861C9.5404 11.9751 9.42188 11.689 9.42188 11.3906C9.42188 10.309 9.85153 9.27175 10.6163 8.50696C11.3811 7.74216 12.4184 7.3125 13.5 7.3125Z" fill="#4B4E6D"/>
</svg>
