<svg width="96" height="96" viewBox="0 0 96 96" fill="none" xmlns="http://www.w3.org/2000/svg">
<path d="M73.9885 34.5C75.9169 38.4219 77 42.8345 77 47.5C77 52.1655 75.9169 56.5781 73.9885 60.5M59.4032 20.5C55.7625 18.8926 51.7355 18 47.5 18C43.2645 18 39.2375 18.8926 35.5968 20.5M21.0115 34.5C19.0831 38.4219 18 42.8345 18 47.5C18 52.1655 19.0831 56.5781 21.0115 60.5M35.5968 74.5C39.2375 76.1074 43.2645 77 47.5 77C51.7355 77 55.7625 76.1074 59.4032 74.5" stroke="white" stroke-width="3" stroke-linecap="round" stroke-linejoin="bevel"/>
<circle cx="48.4382" cy="38.7981" r="6.33787" stroke="white" stroke-width="3"/>
<path d="M36.6387 58.6517C37.377 52.7235 42.4336 48.136 48.5617 48.136C54.6898 48.136 59.7464 52.7235 60.4847 58.6517H60.4009H60.2951H60.1901H60.0859H59.9823H59.8795H59.7775H59.6761H59.5755H59.4756H59.3765H59.278H59.1803H59.0833H58.9869H58.8913H58.7964H58.7022H58.6087H58.5159H58.4238H58.3324H58.2417H58.1517H58.0623H57.9737H57.8857H57.7984H57.7117H57.6258H57.5405H57.4559H57.3719H57.2886H57.206H57.124H57.0427H56.962H56.882H56.8027H56.7239H56.6459H56.5684H56.4916H56.4155H56.3399H56.265H56.1908H56.1171H56.0441H55.9717H55.8999H55.8288H55.7582H55.6883H55.6189H55.5502H55.4821H55.4146H55.3476H55.2813H55.2156H55.1504H55.0859H55.0219H54.9585H54.8957H54.8335H54.7718H54.7107H54.6502H54.5903H54.5309H54.4721H54.4139H54.3562H54.299H54.2425H54.1864H54.131H54.076H54.0216H53.9678H53.9145H53.8617H53.8095H53.7578H53.7066H53.6559H53.6058H53.5562H53.5071H53.4586H53.4105H53.363H53.3159H53.2694H53.2234H53.1778H53.1328H53.0883H53.0443H53.0007H52.9577H52.9151H52.873H52.8314H52.7903H52.7497H52.7095H52.6698H52.6306H52.5918H52.5535H52.5157H52.4783H52.4414H52.4049H52.3689H52.3333H52.2982H52.2635H52.2293H52.1955H52.1622H52.1293H52.0968H52.0647H52.0331H52.0019H51.9711H51.9407H51.9108H51.8813H51.8521H51.8234H51.7951H51.7672H51.7397H51.7126H51.6859H51.6596H51.6337H51.6082H51.5831H51.5583H51.534H51.51H51.4864H51.4631H51.4403H51.4178H51.3957H51.3739H51.3525H51.3315H51.3108H51.2905H51.2705H51.2509H51.2316H51.2127H51.1941H51.1759H51.158H51.1404H51.1232H51.1062H51.0897H51.0734H51.0575H51.0419H51.0266H51.0116H51.0061H51.0061H51.006H51.0059H51.0058H51.0055H51.0054H51.005H51.0048H51.0043H51.004H51.0035H51.0031H51.0026H51.002H51.0015H51.0008H51.0003H50.9993H50.9989H50.9977H50.9974H50.9969H50.9959H50.9958H50.9941H50.994H50.9922H50.9918H50.9902H50.9894H50.9881H50.9869H50.9859H50.9842H50.9835H50.9826H50.9812H50.9811H50.9785H50.9781H50.9759H50.9748H50.9731H50.9712H50.9702H50.9685H50.9675H50.9673H50.9642H50.9635H50.961H50.9594H50.9578H50.955H50.9548H50.9544H50.951H50.9504H50.9475H50.9456H50.9439H50.9414H50.9406H50.9402H50.9365H50.9353H50.9326H50.9298H50.9287H50.9282H50.9248H50.9241H50.9207H50.9182H50.9167H50.9154H50.9125H50.912H50.9083H50.9056H50.904H50.9028H50.8997H50.899H50.8953H50.8921H50.8909H50.8906H50.8864H50.8849H50.8818H50.8786H50.8776H50.8773H50.8727H50.8699H50.868H50.8669H50.8634H50.8621H50.8586H50.8556H50.8539H50.8539H50.8491H50.8456H50.8445H50.8444H50.8395H50.8369H50.8347H50.8336H50.8299H50.828H50.825H50.8231H50.8201H50.8189H50.8152H50.8128H50.8103H50.8094H50.8054H50.8028H50.8005H50.7997H50.7956H50.7931H50.7907H50.7898H50.7858H50.7836H50.781H50.7795H50.7761H50.7745H50.7712H50.769H50.7664H50.7655H50.7615H50.7582H50.7569H50.7567H50.7519H50.7485H50.7472H50.7471H50.7424H50.7403H50.7377H50.7358H50.7331H50.7324H50.7284H50.7248H50.7241H50.7238H50.7193H50.7174H50.7147H50.7122H50.7103H50.7102H50.7058H50.7033H50.7015H50.7H50.6971H50.6966H50.6929H50.6902H50.6886H50.6875H50.6845H50.684H50.6804H50.678H50.6764H50.6747H50.6724H50.6723H50.6685H50.6668H50.6647H50.6615H50.6615H50.661H50.6573H50.6565H50.6537H50.6516H50.6502H50.6481H50.647H50.6468H50.6435H50.6426H50.6402H50.6384H50.6371H50.6345H50.6344H50.634H50.631H50.6307H50.6282H50.6271H50.6254H50.6238H50.6228H50.6206H50.6204H50.6202H50.6178H50.6177H50.6155H50.6149H50.6132H50.6124H50.6112H50.61H50.6092H50.6078H50.6073H50.6061H50.6058H50.6056H50.604H50.604H50.6025H50.6024H50.6012H50.6009H50.6H50.5996H50.5989H50.5985H50.598H50.5976H50.5972H50.5968H50.5965H50.5962H50.596H50.5958H50.5957H50.5955H50.5955H50.5954H50.5915H50.5765H50.5612H50.5457H50.5298H50.5135H50.497H50.4801H50.4629H50.4454H50.4275H50.4093H50.3908H50.3719H50.3526H50.333H50.3131H50.2928H50.2722H50.2512H50.2298H50.2081H50.186H50.1636H50.1407H50.1175H50.094H50.07H50.0457H50.021H49.9959H49.9704H49.9445H49.9183H49.8916H49.8646H49.8371H49.8093H49.781H49.7523H49.7233H49.6938H49.6639H49.6335H49.6028H49.5716H49.5401H49.508H49.4756H49.4427H49.4094H49.3757H49.3415H49.3069H49.2718H49.2363H49.2003H49.1639H49.127H49.0897H49.0519H49.0136H48.9749H48.9357H48.8961H48.856H48.8154H48.7743H48.7328H48.6907H48.6482H48.6052H48.5617H48.5181H48.4748H48.4318H48.3891H48.3467H48.3045H48.2626H48.2211H48.1798H48.1387H48.098H48.0575H48.0173H47.9774H47.9378H47.8984H47.8593H47.8205H47.782H47.7437H47.7056H47.6679H47.6304H47.5932H47.5562H47.5195H47.483H47.4468H47.4109H47.3752H47.3398H47.3046H47.2696H47.2349H47.2005H47.1663H47.1324H47.0987H47.0652H47.032H46.999H46.9663H46.9338H46.9015H46.8695H46.8377H46.8061H46.7748H46.7436H46.7128H46.6821H46.6517H46.6215H46.5915H46.5617H46.5322H46.5029H46.4737H46.4449H46.4162H46.3877H46.3595H46.3314H46.3036H46.276H46.2485H46.2213H46.1943H46.1675H46.1409H46.1145H46.0883H46.0623H46.0365H46.0109H45.9855H45.9602H45.9352H45.9103H45.8857H45.8612H45.8369H45.8128H45.7889H45.7652H45.7416H45.7182H45.695H45.672H45.6492H45.6265H45.604H45.5816H45.5595H45.5375H45.5157H45.494H45.4725H45.4512H45.43H45.409H45.3881H45.3675H45.3469H45.3265H45.3063H45.2862H45.2663H45.2465H45.2269H45.2075H45.1881H45.1689H45.1499H45.131H45.1122H45.0936H45.0752H45.0568H45.0386H45.0205H45.0026H44.9848H44.9671H44.9496H44.9321H44.9149H44.8977H44.8806H44.8637H44.8469H44.8302H44.8137H44.7972H44.7809H44.7647H44.7486H44.7326H44.7167H44.701H44.6853H44.6697H44.6543H44.639H44.6237H44.6086H44.5935H44.5786H44.5637H44.549H44.5344H44.5198H44.5053H44.491H44.4767H44.4625H44.4484H44.4343H44.4204H44.4065H44.3928H44.3791H44.3655H44.3519H44.3385H44.3251H44.3118H44.2985H44.2854H44.2723H44.2592H44.2463H44.2334H44.2205H44.2078H44.1951H44.1824H44.1698H44.1573H44.1448H44.1324H44.1201H44.1077H44.0955H44.0833H44.0711H44.059H44.0469H44.0349H44.023H44.011H43.9991H43.9873H43.9755H43.9637H43.9519H43.9402H43.9286H43.9169H43.9053H43.8937H43.8822H43.8706H43.8591H43.8477H43.8362H43.8248H43.8133H43.8019H43.7906H43.7792H43.7679H43.7565H43.7452H43.7339H43.7226H43.7113H43.7H43.6887H43.6774H43.6662H43.6549H43.6436H43.6323H43.6211H43.6098H43.5985H43.5872H43.5759H43.5646H43.5533H43.5419H43.5306H43.5192H43.5078H43.4965H43.485H43.4736H43.4622H43.4507H43.4392H43.4277H43.4161H43.4046H43.393H43.3813H43.3697H43.358H43.3462H43.3345H43.3227H43.3108H43.2989H43.287H43.2751H43.263H43.251H43.2389H43.2268H43.2146H43.2023H43.19H43.1777H43.1653H43.1528H43.1403H43.1277H43.1151H43.1024H43.0897H43.0769H43.064H43.0511H43.038H43.025H43.0118H42.9986H42.9853H42.972H42.9585H42.945H42.9314H42.9177H42.904H42.8902H42.8762H42.8622H42.8482H42.834H42.8197H42.8054H42.7909H42.7764H42.7618H42.7471H42.7323H42.7173H42.7023H42.6872H42.672H42.6567H42.6413H42.6258H42.6101H42.5944H42.5786H42.5626H42.5465H42.5304H42.5141H42.4977H42.4811H42.4645H42.4477H42.4308H42.4138H42.3967H42.3795H42.3621H42.3446H42.3269H42.3092H42.2913H42.2732H42.2551H42.2368H42.2183H42.1998H42.181H42.1622H42.1432H42.124H42.1048H42.0853H42.0658H42.046H42.0262H42.0061H41.9859H41.9656H41.9451H41.9245H41.9037H41.8827H41.8616H41.8403H41.8189H41.7973H41.7755H41.7535H41.7314H41.7092H41.6867H41.6641H41.6413H41.6183H41.5952H41.5718H41.5483H41.5247H41.5008H41.4767H41.4525H41.4281H41.4035H41.3787H41.3537H41.3285H41.3032H41.2776H41.2519H41.2259H41.1998H41.1734H41.1469H41.1202H41.0932H41.0661H41.0387H41.0111H40.9834H40.9554H40.9272H40.8988H40.8702H40.8414H40.8123H40.7831H40.7536H40.7239H40.694H40.6638H40.6335H40.6029H40.5721H40.541H40.5098H40.4783H40.4465H40.4146H40.3824H40.3499H40.3173H40.2844H40.2512H40.2178H40.1842H40.1503H40.1162H40.0819H40.0472H40.0124H39.9773H39.9419H39.9063H39.8704H39.8343H39.7979H39.7613H39.7244H39.6873H39.6498H39.6122H39.5742H39.536H39.4975H39.4588H39.4198H39.3805H39.341H39.3011H39.261H39.2206H39.18H39.139H39.0978H39.0563H39.0146H38.9725H38.9301H38.8875H38.8446H38.8014H38.7579H38.7141H38.67H38.6256H38.5809H38.5359H38.4907H38.4451H38.3992H38.353H38.3066H38.2598H38.2127H38.1653H38.1176H38.0696H38.0212H37.9726H37.9236H37.8744H37.8248H37.7749H37.7246H37.6741H37.6232H37.572H37.5205H37.4687H37.4165H37.364H37.3111H37.258H37.2045H37.1507H37.0965H37.042H36.9872H36.932H36.8765H36.8206H36.7644H36.7078H36.651H36.6387Z" stroke="white" stroke-width="3"/>
<circle cx="29.1715" cy="27.1715" r="4.67155" stroke="white" stroke-width="3"/>
<path d="M65.5572 70.2385L69.159 64L72.7608 70.2385H65.5572Z" stroke="white" stroke-width="3"/>
<path d="M68.1715 23.9803L68.8705 25.1804L69.2032 25.7516L69.8492 25.8915L71.2066 26.1854L70.2812 27.221L69.8408 27.7139L69.9074 28.3716L70.0473 29.7533L68.7764 29.1933L68.1715 28.9267L67.5667 29.1933L66.2958 29.7533L66.4357 28.3716L66.5023 27.7139L66.0619 27.221L65.1365 26.1854L66.4939 25.8915L67.1399 25.7516L67.4726 25.1804L68.1715 23.9803Z" stroke="white" stroke-width="3"/>
<path d="M24.4526 67.8732L27.8202 62.3397L32.5943 66.7178L29.2854 72.6643L24.4526 67.8732Z" stroke="white" stroke-width="3"/>
</svg>
