<svg width="96" height="96" viewBox="0 0 96 96" fill="none" xmlns="http://www.w3.org/2000/svg">
<path d="M73.0357 29.2852H21.9643C18.118 29.2852 15 32.4032 15 36.2494V68.7494C15 72.5957 18.118 75.7137 21.9643 75.7137H73.0357C76.882 75.7137 80 72.5957 80 68.7494V36.2494C80 32.4032 76.882 29.2852 73.0357 29.2852Z" stroke="white" stroke-width="4" stroke-linejoin="round"/>
<path d="M31.2505 29.2857V24.6429C31.2505 23.4115 31.7396 22.2306 32.6104 21.3599C33.4811 20.4892 34.662 20 35.8933 20H59.1076C60.339 20 61.5199 20.4892 62.3906 21.3599C63.2613 22.2306 63.7505 23.4115 63.7505 24.6429V29.2857M80.0005 45.5357H15.0005M56.7862 45.5357V49.0179C56.7862 49.3257 56.6639 49.6209 56.4462 49.8386C56.2286 50.0563 55.9333 50.1786 55.6255 50.1786H39.3755C39.0676 50.1786 38.7724 50.0563 38.5547 49.8386C38.3371 49.6209 38.2148 49.3257 38.2148 49.0179V45.5357" stroke="white" stroke-width="4" stroke-linecap="round" stroke-linejoin="round"/>
</svg>
