<svg width="59" height="59" viewBox="0 0 59 59" fill="none" xmlns="http://www.w3.org/2000/svg">
<circle cx="29.4382" cy="20.7981" r="6.33787" stroke="white" stroke-width="3"/>
<path d="M17.6387 40.6517C18.377 34.7235 23.4336 30.136 29.5617 30.136C35.6898 30.136 40.7464 34.7235 41.4847 40.6517H41.4009H41.2951H41.1901H41.0859H40.9823H40.8795H40.7775H40.6761H40.5755H40.4756H40.3765H40.278H40.1803H40.0833H39.9869H39.8913H39.7964H39.7022H39.6087H39.5159H39.4238H39.3324H39.2417H39.1517H39.0623H38.9737H38.8857H38.7984H38.7117H38.6258H38.5405H38.4559H38.3719H38.2886H38.206H38.124H38.0427H37.962H37.882H37.8027H37.7239H37.6459H37.5684H37.4916H37.4155H37.3399H37.265H37.1908H37.1171H37.0441H36.9717H36.8999H36.8288H36.7582H36.6883H36.6189H36.5502H36.4821H36.4146H36.3476H36.2813H36.2156H36.1504H36.0859H36.0219H35.9585H35.8957H35.8335H35.7718H35.7107H35.6502H35.5903H35.5309H35.4721H35.4139H35.3562H35.299H35.2425H35.1864H35.131H35.076H35.0216H34.9678H34.9145H34.8617H34.8095H34.7578H34.7066H34.6559H34.6058H34.5562H34.5071H34.4586H34.4105H34.363H34.3159H34.2694H34.2234H34.1778H34.1328H34.0883H34.0443H34.0007H33.9577H33.9151H33.873H33.8314H33.7903H33.7497H33.7095H33.6698H33.6306H33.5918H33.5535H33.5157H33.4783H33.4414H33.4049H33.3689H33.3333H33.2982H33.2635H33.2293H33.1955H33.1622H33.1293H33.0968H33.0647H33.0331H33.0019H32.9711H32.9407H32.9108H32.8813H32.8521H32.8234H32.7951H32.7672H32.7397H32.7126H32.6859H32.6596H32.6337H32.6082H32.5831H32.5583H32.534H32.51H32.4864H32.4631H32.4403H32.4178H32.3957H32.3739H32.3525H32.3315H32.3108H32.2905H32.2705H32.2509H32.2316H32.2127H32.1941H32.1759H32.158H32.1404H32.1232H32.1062H32.0897H32.0734H32.0575H32.0419H32.0266H32.0116H32.0061H32.0061H32.006H32.0059H32.0058H32.0055H32.0054H32.005H32.0048H32.0043H32.004H32.0035H32.0031H32.0026H32.002H32.0015H32.0008H32.0003H31.9993H31.9989H31.9977H31.9974H31.9969H31.9959H31.9958H31.9941H31.994H31.9922H31.9918H31.9902H31.9894H31.9881H31.9869H31.9859H31.9842H31.9835H31.9826H31.9812H31.9811H31.9785H31.9781H31.9759H31.9748H31.9731H31.9712H31.9702H31.9685H31.9675H31.9673H31.9642H31.9635H31.961H31.9594H31.9578H31.955H31.9548H31.9544H31.951H31.9504H31.9475H31.9456H31.9439H31.9414H31.9406H31.9402H31.9365H31.9353H31.9326H31.9298H31.9287H31.9282H31.9248H31.9241H31.9207H31.9182H31.9167H31.9154H31.9125H31.912H31.9083H31.9056H31.904H31.9028H31.8997H31.899H31.8953H31.8921H31.8909H31.8906H31.8864H31.8849H31.8818H31.8786H31.8776H31.8773H31.8727H31.8699H31.868H31.8669H31.8634H31.8621H31.8586H31.8556H31.8539H31.8539H31.8491H31.8456H31.8445H31.8444H31.8395H31.8369H31.8347H31.8336H31.8299H31.828H31.825H31.8231H31.8201H31.8189H31.8152H31.8128H31.8103H31.8094H31.8054H31.8028H31.8005H31.7997H31.7956H31.7931H31.7907H31.7898H31.7858H31.7836H31.781H31.7795H31.7761H31.7745H31.7712H31.769H31.7664H31.7655H31.7615H31.7582H31.7569H31.7567H31.7519H31.7485H31.7472H31.7471H31.7424H31.7403H31.7377H31.7358H31.7331H31.7324H31.7284H31.7248H31.7241H31.7238H31.7193H31.7174H31.7147H31.7122H31.7103H31.7102H31.7058H31.7033H31.7015H31.7H31.6971H31.6966H31.6929H31.6902H31.6886H31.6875H31.6845H31.684H31.6804H31.678H31.6764H31.6747H31.6724H31.6723H31.6685H31.6668H31.6647H31.6615H31.6615H31.661H31.6573H31.6565H31.6537H31.6516H31.6502H31.6481H31.647H31.6468H31.6435H31.6426H31.6402H31.6384H31.6371H31.6345H31.6344H31.634H31.631H31.6307H31.6282H31.6271H31.6254H31.6238H31.6228H31.6206H31.6204H31.6202H31.6178H31.6177H31.6155H31.6149H31.6132H31.6124H31.6112H31.61H31.6092H31.6078H31.6073H31.6061H31.6058H31.6056H31.604H31.604H31.6025H31.6024H31.6012H31.6009H31.6H31.5996H31.5989H31.5985H31.598H31.5976H31.5972H31.5968H31.5965H31.5962H31.596H31.5958H31.5957H31.5955H31.5955H31.5954H31.5915H31.5765H31.5612H31.5457H31.5298H31.5135H31.497H31.4801H31.4629H31.4454H31.4275H31.4093H31.3908H31.3719H31.3526H31.333H31.3131H31.2928H31.2722H31.2512H31.2298H31.2081H31.186H31.1636H31.1407H31.1175H31.094H31.07H31.0457H31.021H30.9959H30.9704H30.9445H30.9183H30.8916H30.8646H30.8371H30.8093H30.781H30.7523H30.7233H30.6938H30.6639H30.6335H30.6028H30.5716H30.5401H30.508H30.4756H30.4427H30.4094H30.3757H30.3415H30.3069H30.2718H30.2363H30.2003H30.1639H30.127H30.0897H30.0519H30.0136H29.9749H29.9357H29.8961H29.856H29.8154H29.7743H29.7328H29.6907H29.6482H29.6052H29.5617H29.5181H29.4748H29.4318H29.3891H29.3467H29.3045H29.2626H29.2211H29.1798H29.1387H29.098H29.0575H29.0173H28.9774H28.9378H28.8984H28.8593H28.8205H28.782H28.7437H28.7056H28.6679H28.6304H28.5932H28.5562H28.5195H28.483H28.4468H28.4109H28.3752H28.3398H28.3046H28.2696H28.2349H28.2005H28.1663H28.1324H28.0987H28.0652H28.032H27.999H27.9663H27.9338H27.9015H27.8695H27.8377H27.8061H27.7748H27.7436H27.7128H27.6821H27.6517H27.6215H27.5915H27.5617H27.5322H27.5029H27.4737H27.4449H27.4162H27.3877H27.3595H27.3314H27.3036H27.276H27.2485H27.2213H27.1943H27.1675H27.1409H27.1145H27.0883H27.0623H27.0365H27.0109H26.9855H26.9602H26.9352H26.9103H26.8857H26.8612H26.8369H26.8128H26.7889H26.7652H26.7416H26.7182H26.695H26.672H26.6492H26.6265H26.604H26.5816H26.5595H26.5375H26.5157H26.494H26.4725H26.4512H26.43H26.409H26.3881H26.3675H26.3469H26.3265H26.3063H26.2862H26.2663H26.2465H26.2269H26.2075H26.1881H26.1689H26.1499H26.131H26.1122H26.0936H26.0752H26.0568H26.0386H26.0205H26.0026H25.9848H25.9671H25.9496H25.9321H25.9149H25.8977H25.8806H25.8637H25.8469H25.8302H25.8137H25.7972H25.7809H25.7647H25.7486H25.7326H25.7167H25.701H25.6853H25.6697H25.6543H25.639H25.6237H25.6086H25.5935H25.5786H25.5637H25.549H25.5344H25.5198H25.5053H25.491H25.4767H25.4625H25.4484H25.4343H25.4204H25.4065H25.3928H25.3791H25.3655H25.3519H25.3385H25.3251H25.3118H25.2985H25.2854H25.2723H25.2592H25.2463H25.2334H25.2205H25.2078H25.1951H25.1824H25.1698H25.1573H25.1448H25.1324H25.1201H25.1077H25.0955H25.0833H25.0711H25.059H25.0469H25.0349H25.023H25.011H24.9991H24.9873H24.9755H24.9637H24.9519H24.9402H24.9286H24.9169H24.9053H24.8937H24.8822H24.8706H24.8591H24.8477H24.8362H24.8248H24.8133H24.8019H24.7906H24.7792H24.7679H24.7565H24.7452H24.7339H24.7226H24.7113H24.7H24.6887H24.6774H24.6662H24.6549H24.6436H24.6323H24.6211H24.6098H24.5985H24.5872H24.5759H24.5646H24.5533H24.5419H24.5306H24.5192H24.5078H24.4965H24.485H24.4736H24.4622H24.4507H24.4392H24.4277H24.4161H24.4046H24.393H24.3813H24.3697H24.358H24.3462H24.3345H24.3227H24.3108H24.2989H24.287H24.2751H24.263H24.251H24.2389H24.2268H24.2146H24.2023H24.19H24.1777H24.1653H24.1528H24.1403H24.1277H24.1151H24.1024H24.0897H24.0769H24.064H24.0511H24.038H24.025H24.0118H23.9986H23.9853H23.972H23.9585H23.945H23.9314H23.9177H23.904H23.8902H23.8762H23.8622H23.8482H23.834H23.8197H23.8054H23.7909H23.7764H23.7618H23.7471H23.7323H23.7173H23.7023H23.6872H23.672H23.6567H23.6413H23.6258H23.6101H23.5944H23.5786H23.5626H23.5465H23.5304H23.5141H23.4977H23.4811H23.4645H23.4477H23.4308H23.4138H23.3967H23.3795H23.3621H23.3446H23.3269H23.3092H23.2913H23.2732H23.2551H23.2368H23.2183H23.1998H23.181H23.1622H23.1432H23.124H23.1048H23.0853H23.0658H23.046H23.0262H23.0061H22.9859H22.9656H22.9451H22.9245H22.9037H22.8827H22.8616H22.8403H22.8189H22.7973H22.7755H22.7535H22.7314H22.7092H22.6867H22.6641H22.6413H22.6183H22.5952H22.5718H22.5483H22.5247H22.5008H22.4767H22.4525H22.4281H22.4035H22.3787H22.3537H22.3285H22.3032H22.2776H22.2519H22.2259H22.1998H22.1734H22.1469H22.1202H22.0932H22.0661H22.0387H22.0111H21.9834H21.9554H21.9272H21.8988H21.8702H21.8414H21.8123H21.7831H21.7536H21.7239H21.694H21.6638H21.6335H21.6029H21.5721H21.541H21.5098H21.4783H21.4465H21.4146H21.3824H21.3499H21.3173H21.2844H21.2512H21.2178H21.1842H21.1503H21.1162H21.0819H21.0472H21.0124H20.9773H20.9419H20.9063H20.8704H20.8343H20.7979H20.7613H20.7244H20.6873H20.6498H20.6122H20.5742H20.536H20.4975H20.4588H20.4198H20.3805H20.341H20.3011H20.261H20.2206H20.18H20.139H20.0978H20.0563H20.0146H19.9725H19.9301H19.8875H19.8446H19.8014H19.7579H19.7141H19.67H19.6256H19.5809H19.5359H19.4907H19.4451H19.3992H19.353H19.3066H19.2598H19.2127H19.1653H19.1176H19.0696H19.0212H18.9726H18.9236H18.8744H18.8248H18.7749H18.7246H18.6741H18.6232H18.572H18.5205H18.4687H18.4165H18.364H18.3111H18.258H18.2045H18.1507H18.0965H18.042H17.9872H17.932H17.8765H17.8206H17.7644H17.7078H17.651H17.6387Z" stroke="white" stroke-width="3"/>
<circle cx="10.7386" cy="9.13371" r="4.67155" stroke="white" stroke-width="3"/>
<path d="M46.6347 52.4394L50.2365 46.2009L53.8383 52.4394H46.6347Z" stroke="white" stroke-width="3"/>
<path d="M50.2365 5.3253L50.9355 6.52538L51.2682 7.09656L51.9142 7.23645L53.2715 7.53038L52.3462 8.566L51.9058 9.0589L51.9723 9.71653L52.1122 11.0983L50.8414 10.5382L50.2365 10.2717L49.6316 10.5382L48.3607 11.0983L48.5006 9.71653L48.5672 9.0589L48.1268 8.56599L47.2015 7.53038L48.5588 7.23645L49.2048 7.09656L49.5375 6.52538L50.2365 5.3253Z" stroke="white" stroke-width="3"/>
<path d="M4.31666 48.9757L7.68421 43.4423L12.4583 47.8204L9.14937 53.7668L4.31666 48.9757Z" stroke="white" stroke-width="3"/>
<circle cx="29.5" cy="29.5" r="28" stroke="white" stroke-width="3" stroke-dasharray="150 150"/>
</svg>
