<svg width="69" height="60" viewBox="0 0 69 60" fill="none" xmlns="http://www.w3.org/2000/svg">
<path d="M60.0357 11.4282H8.96429C5.11802 11.4282 2 14.5462 2 18.3925V50.8925C2 54.7388 5.11802 57.8568 8.96429 57.8568H60.0357C63.882 57.8568 67 54.7388 67 50.8925V18.3925C67 14.5462 63.882 11.4282 60.0357 11.4282Z" stroke="#595959" stroke-width="4" stroke-linejoin="round"/>
<path d="M18.2505 11.4288V6.78592C18.2505 5.55456 18.7396 4.37363 19.6104 3.50293C20.4811 2.63222 21.662 2.14307 22.8933 2.14307H46.1076C47.339 2.14307 48.5199 2.63222 49.3906 3.50293C50.2613 4.37363 50.7505 5.55456 50.7505 6.78592V11.4288M67.0005 27.6788H2.00049M43.7862 27.6788V31.1609C43.7862 31.4688 43.6639 31.764 43.4462 31.9817C43.2286 32.1993 42.9333 32.3216 42.6255 32.3216H26.3755C26.0676 32.3216 25.7724 32.1993 25.5547 31.9817C25.3371 31.764 25.2148 31.4688 25.2148 31.1609V27.6788" stroke="#595959" stroke-width="4" stroke-linecap="round" stroke-linejoin="round"/>
</svg>
