<svg width="20" height="20" viewBox="0 0 20 20" fill="none" xmlns="http://www.w3.org/2000/svg">
<path d="M17.8768 1H2.08685C1.83305 1 1.58964 1.10082 1.41017 1.28029C1.23071 1.45976 1.12988 1.70317 1.12988 1.95697V17.747C1.12988 18.0008 1.23071 18.2442 1.41017 18.4236C1.58964 18.6031 1.83305 18.7039 2.08685 18.7039H17.8768C18.1306 18.7039 18.3741 18.6031 18.5535 18.4236C18.733 18.2442 18.8338 18.0008 18.8338 17.747V1.95697C18.8338 1.70317 18.733 1.45976 18.5535 1.28029C18.3741 1.10082 18.1306 1 17.8768 1Z" stroke="#595959" stroke-linecap="round" stroke-linejoin="round"/>
<path d="M6.11191 7.02316V10.5486C6.11191 11.1975 5.58558 11.7238 4.93675 11.7238C4.78243 11.7238 4.62962 11.6934 4.48704 11.6343C4.34446 11.5753 4.21492 11.4887 4.10579 11.3796C3.99667 11.2705 3.91011 11.1409 3.85105 10.9984C3.79199 10.8558 3.7616 10.703 3.7616 10.5486V10.1582" stroke="#595959" stroke-linecap="round" stroke-linejoin="round"/>
<path d="M9.60428 9.78498C9.60428 9.13595 9.07815 8.60982 8.42912 8.60982C7.7801 8.60982 7.25397 9.13595 7.25397 9.78498V10.5486C7.25397 11.1977 7.7801 11.7238 8.42912 11.7238C9.07815 11.7238 9.60428 11.1977 9.60428 10.5486V9.78498Z" stroke="#595959" stroke-linecap="round" stroke-linejoin="round"/>
<path d="M14.1954 11.4611C14.4098 11.6415 14.6414 11.7238 15.162 11.7238H15.4251C15.8543 11.7238 16.2022 11.3755 16.2022 10.9453C16.2022 10.5151 15.8543 10.1668 15.4251 10.1668H14.8978C14.7957 10.1667 14.6947 10.1464 14.6004 10.1073C14.5061 10.0681 14.4204 10.0107 14.3483 9.93839C14.2762 9.8661 14.219 9.78032 14.1801 9.68594C14.1411 9.59155 14.1211 9.49042 14.1213 9.38831C14.1213 8.95815 14.4691 8.60982 14.8978 8.60982H15.1615C15.6821 8.60982 15.9137 8.69212 16.128 8.87251M10.7192 9.78498C10.7192 9.13567 11.2456 8.60982 11.8944 8.60982C12.5432 8.60982 13.0696 9.13615 13.0696 9.78498V10.5486C13.0696 11.1975 12.5432 11.7238 11.8944 11.7238C11.5827 11.7238 11.2838 11.6 11.0634 11.3796C10.843 11.1592 10.7192 10.8603 10.7192 10.5486M10.7192 11.7238V7.02316" stroke="#595959" stroke-linecap="round" stroke-linejoin="round"/>
</svg>
