<svg width="14" height="18" viewBox="0 0 14 18" fill="none" xmlns="http://www.w3.org/2000/svg">
<path d="M12.1666 17.7039H2.05009C1.71481 17.7036 1.39335 17.5703 1.15628 17.3332C0.919196 17.0961 0.785857 16.7746 0.785522 16.4394V1.26457C0.785857 0.929285 0.919196 0.607832 1.15628 0.370753C1.39335 0.133673 1.71481 0.000334779 2.05009 0H12.1666C12.5019 0.000334779 12.8234 0.133673 13.0604 0.370753C13.2975 0.607832 13.4309 0.929285 13.4312 1.26457V11.7718L10.2698 10.1911L7.10835 11.7718V1.26457H2.05009V16.4394H12.1666V13.9102H13.4312V16.4394C13.4307 16.7746 13.2973 17.0959 13.0602 17.333C12.8232 17.57 12.5018 17.7034 12.1666 17.7039ZM10.2698 8.77735L12.1666 9.72578V1.26457H8.37292V9.72578L10.2698 8.77735Z" fill="#595959"/>
</svg>
