<svg width="27" height="27" viewBox="0 0 27 27" fill="none" xmlns="http://www.w3.org/2000/svg">
<path d="M25.008 0.000102245H1.99179C1.46957 -0.00521247 0.966564 0.196856 0.593152 0.56197C0.21974 0.927084 0.00642048 1.42542 0 1.94763V25.0568C0.0075816 25.5782 0.221412 26.0754 0.594697 26.4396C0.967982 26.8038 1.47032 27.0052 1.99179 26.9999H25.008C25.5303 27.004 26.0329 26.8013 26.4061 26.4359C26.7794 26.0706 26.9928 25.5724 26.9998 25.0502V1.94099C26.9905 1.42031 26.776 0.924351 26.4031 0.560914C26.0301 0.197476 25.5288 -0.00406317 25.008 0.000102245Z" fill="#595959"/>
<path d="M4.31863 10.1206H8.32655V23.0163H4.31863V10.1206ZM6.32369 3.70264C6.78338 3.70264 7.23274 3.83898 7.61493 4.09441C7.99712 4.34985 8.29496 4.7129 8.47077 5.13764C8.64659 5.56238 8.69247 6.02972 8.60263 6.48055C8.51279 6.93137 8.29125 7.34542 7.96605 7.67031C7.64085 7.99521 7.22659 8.21635 6.77568 8.30576C6.32477 8.39517 5.85747 8.34884 5.4329 8.17262C5.00832 7.9964 4.64556 7.69822 4.39049 7.31579C4.13542 6.93336 3.9995 6.48387 3.99994 6.02418C4.00053 5.40826 4.24561 4.81778 4.68133 4.38247C5.11706 3.94716 5.70778 3.70264 6.32369 3.70264ZM10.8406 10.1206H14.6826V11.8911H14.7357C15.2712 10.8775 16.577 9.80857 18.5267 9.80857C22.5855 9.79972 23.338 12.4709 23.338 15.9344V23.0163H19.3301V16.7422C19.3301 15.2484 19.3035 13.3252 17.2475 13.3252C15.1916 13.3252 14.8419 14.954 14.8419 16.6448V23.0163H10.8406V10.1206Z" fill="#F5F5F5"/>
</svg>
