<svg width="20" height="20" viewBox="0 0 20 20" fill="none" xmlns="http://www.w3.org/2000/svg">
<path d="M17.9486 13.3928H14.4078C13.9189 13.3928 13.5226 13.7891 13.5226 14.278V17.8187C13.5226 18.3076 13.9189 18.7039 14.4078 18.7039H17.9486C18.4374 18.7039 18.8338 18.3076 18.8338 17.8187V14.278C18.8338 13.7891 18.4374 13.3928 17.9486 13.3928Z" stroke="#595959" stroke-linecap="round" stroke-linejoin="round"/>
<path d="M5.55586 13.3928H2.01508C1.5262 13.3928 1.12988 13.7891 1.12988 14.278V17.8187C1.12988 18.3076 1.5262 18.7039 2.01508 18.7039H5.55586C6.04475 18.7039 6.44106 18.3076 6.44106 17.8187V14.278C6.44106 13.7891 6.04475 13.3928 5.55586 13.3928Z" stroke="#595959" stroke-linecap="round" stroke-linejoin="round"/>
<path d="M11.7523 1H8.21149C7.72261 1 7.32629 1.39632 7.32629 1.8852V5.42598C7.32629 5.91486 7.72261 6.31118 8.21149 6.31118H11.7523C12.2412 6.31118 12.6375 5.91486 12.6375 5.42598V1.8852C12.6375 1.39632 12.2412 1 11.7523 1Z" stroke="#595959" stroke-linecap="round" stroke-linejoin="round"/>
<path d="M3.78552 13.3928V10.7372C3.78552 10.5024 3.87878 10.2772 4.04479 10.1112C4.2108 9.94523 4.43595 9.85197 4.67072 9.85197H15.2931C15.5278 9.85197 15.753 9.94523 15.919 10.1112C16.085 10.2772 16.1783 10.5024 16.1783 10.7372V13.3928M9.9819 9.85197V6.31119" stroke="#595959" stroke-linecap="round" stroke-linejoin="round"/>
</svg>
